<svg viewBox="0 0 150 150" fill="none" xmlns="http://www.w3.org/2000/svg">
<path d="M9.21741 65.3975H48.9945C49.6827 65.3962 50.3643 65.5317 50.9998 65.796C51.6352 66.0604 52.2118 66.4483 52.6961 66.9373C55.7382 69.7224 58.3748 72.9202 60.5291 76.4373L60.5754 76.5989C60.77 77.3684 60.7854 78.1722 60.6206 78.9486C60.4557 79.7249 60.1149 80.4531 59.6244 81.077C59.1339 81.7009 58.5068 82.204 57.7913 82.5475C57.0758 82.891 56.2911 83.0658 55.4975 83.0584L9.28274 83.0338C7.90791 83.0329 6.589 82.4895 5.61261 81.5216C4.63622 80.5537 4.08126 79.2396 4.06833 77.8648L4.00023 70.6649C3.99371 69.9756 4.12383 69.2918 4.38308 68.6531C4.64234 68.0144 5.02559 67.4333 5.51068 66.9436C5.99578 66.4538 6.57312 66.065 7.20934 65.7996C7.84556 65.5342 8.52806 65.3976 9.21741 65.3975Z" fill="currentColor"/>
<path d="M25.1312 97.9589C30.2485 111.878 40.1361 123.53 53.036 130.846C65.9359 138.161 81.012 140.664 95.5836 137.91C110.155 135.156 123.278 127.324 132.619 115.806C141.96 104.288 146.913 89.83 146.598 75.0038C146.915 60.1125 141.919 45.5949 132.503 34.0536C123.088 22.5123 109.87 14.7018 95.2179 12.0224C80.5662 9.34304 65.4391 11.9699 52.5485 19.4321C39.6579 26.8943 29.8467 38.7038 24.8735 52.7438C24.8735 52.7438 51.8609 53.5891 52.1333 53.2588C63.5467 39.4166 70.6088 36.1125 83.7841 36.1125C93.9721 36.3045 103.678 40.4864 110.815 47.7592C117.952 55.0321 121.951 64.815 121.951 75.0049C121.951 85.1947 117.952 94.9776 110.815 102.25C103.678 109.523 93.9721 113.705 83.7841 113.897C77.6129 113.884 71.538 112.365 66.0868 109.472C60.6355 106.58 55.9726 102.4 52.5026 97.2969" fill="currentColor"/>
<path d="M25.1312 97.9589C30.2485 111.878 40.1361 123.53 53.036 130.846C65.9359 138.161 81.012 140.664 95.5836 137.91C110.155 135.156 123.278 127.324 132.619 115.806C141.96 104.288 146.913 89.83 146.598 75.0038C146.915 60.1125 141.919 45.5949 132.503 34.0536C123.088 22.5123 109.87 14.7018 95.2179 12.0224C80.5662 9.34304 65.4391 11.9699 52.5485 19.4321C39.6579 26.8943 29.8467 38.7038 24.8735 52.7438C24.8735 52.7438 51.8609 53.5891 52.1333 53.2588C63.5467 39.4166 70.6088 36.1125 83.7841 36.1125C93.9721 36.3045 103.678 40.4864 110.815 47.7592C117.952 55.0321 121.951 64.815 121.951 75.0049C121.951 85.1947 117.952 94.9776 110.815 102.25C103.678 109.523 93.9721 113.705 83.7841 113.897C77.6129 113.884 71.538 112.365 66.0868 109.472C60.6355 106.58 55.9726 102.4 52.5026 97.2969" stroke="currentColor" stroke-width="2" stroke-linecap="round" stroke-linejoin="round"/>
<path d="M26.1953 96.887L48.4047 97.021" stroke="currentColor" stroke-width="2" stroke-linecap="round" stroke-linejoin="round"/>
<path d="M4.27537 92.2614L84.2399 92.5015C83.5343 93.597 82.6197 94.5426 81.5483 95.2843C80.477 96.026 79.2699 96.5492 77.9961 96.824C74.154 97.3043 4.17017 96.9344 4.17017 96.9344L4.27537 92.2614Z" fill="currentColor" stroke="currentColor" stroke-width="2" stroke-linecap="round" stroke-linejoin="round"/>
<path d="M9.21741 65.3976H48.9945C49.6827 65.3963 50.3643 65.5318 50.9998 65.7961C51.6352 66.0605 52.2118 66.4484 52.6961 66.9374C55.7382 69.7225 58.3748 72.9203 60.5291 76.4374L60.5754 76.5991C60.77 77.3685 60.7854 78.1723 60.6206 78.9487C60.4557 79.725 60.1149 80.4532 59.6244 81.0771C59.1339 81.7011 58.5068 82.2042 57.7913 82.5477C57.0758 82.8912 56.2911 83.0659 55.4975 83.0585L9.28274 83.034C7.90791 83.033 6.589 82.4896 5.61261 81.5217C4.63622 80.5538 4.08126 79.2397 4.06833 77.8649L4.00023 70.6651C3.99371 69.9758 4.12383 69.292 4.38308 68.6532C4.64234 68.0145 5.02559 67.4335 5.51068 66.9437C5.99578 66.4539 6.57312 66.0651 7.20934 65.7997C7.84556 65.5344 8.52806 65.3977 9.21741 65.3976Z" stroke="currentColor" stroke-width="2" stroke-miterlimit="10"/>
<path d="M73.6376 83.4095C79.0881 83.4095 83.5066 79.0165 83.5066 73.5975C83.5066 68.1785 79.0881 63.7855 73.6376 63.7855C68.1871 63.7855 63.7686 68.1785 63.7686 73.5975C63.7686 79.0165 68.1871 83.4095 73.6376 83.4095Z" fill="currentColor"/>
</svg>
