<svg viewBox="0 0 150 150" fill="none" xmlns="http://www.w3.org/2000/svg">
<path d="M75.5 75C84.972 75 94.0561 71.5759 100.754 65.481C107.452 59.386 111.214 51.1195 111.214 42.5C111.214 33.8805 107.452 25.614 100.754 19.519C94.0561 13.4241 84.972 10 75.5 10C66.028 10 56.9439 13.4241 50.2462 19.519C43.5485 25.614 39.7857 33.8805 39.7857 42.5C39.7857 51.1195 43.5485 59.386 50.2462 65.481C56.9439 71.5759 66.028 75 75.5 75ZM48.7143 89.0156C28.067 94.5254 13 111.893 13 132.459C13 136.623 16.7109 140 21.2868 140H129.713C134.289 140 138 136.623 138 132.459C138 111.893 122.933 94.5254 102.286 89.0156V101.914C109.987 103.717 115.679 110.09 115.679 117.656V127.812C115.679 130.047 113.67 131.875 111.214 131.875H106.75C104.295 131.875 102.286 130.047 102.286 127.812C102.286 125.578 104.295 123.75 106.75 123.75V117.656C106.75 113.162 102.76 109.531 97.8214 109.531C92.8828 109.531 88.8929 113.162 88.8929 117.656V123.75C91.3482 123.75 93.3571 125.578 93.3571 127.812C93.3571 130.047 91.3482 131.875 88.8929 131.875H84.4286C81.9732 131.875 79.9643 130.047 79.9643 127.812V117.656C79.9643 110.09 85.6563 103.717 93.3571 101.914V87.416C91.683 87.2637 89.981 87.1875 88.2511 87.1875H62.7489C61.019 87.1875 59.317 87.2637 57.6429 87.416V104.021C64.0882 105.773 68.8036 111.207 68.8036 117.656C68.8036 125.502 61.8002 131.875 53.1786 131.875C44.5569 131.875 37.5536 125.502 37.5536 117.656C37.5536 111.207 42.269 105.773 48.7143 104.021V89.0156ZM53.1786 123.75C54.9546 123.75 56.6578 123.108 57.9137 121.965C59.1695 120.822 59.875 119.272 59.875 117.656C59.875 116.04 59.1695 114.49 57.9137 113.347C56.6578 112.205 54.9546 111.562 53.1786 111.562C51.4026 111.562 49.6993 112.205 48.4435 113.347C47.1877 114.49 46.4821 116.04 46.4821 117.656C46.4821 119.272 47.1877 120.822 48.4435 121.965C49.6993 123.108 51.4026 123.75 53.1786 123.75Z" fill="currentColor"/>
</svg>
