<svg viewBox="0 0 150 150" fill="currentColor" xmlns="http://www.w3.org/2000/svg">
<path d="M58.7536 34.375C61.9861 34.375 65.0863 33.091 67.3721 30.8054C69.6578 28.5198 70.942 25.4198 70.942 22.1875C70.942 18.9552 69.6578 15.8552 67.3721 13.5696C65.0863 11.284 61.9861 10 58.7536 10C55.521 10 52.4208 11.284 50.1351 13.5696C47.8493 15.8552 46.5652 18.9552 46.5652 22.1875C46.5652 25.4198 47.8493 28.5198 50.1351 30.8054C52.4208 33.091 55.521 34.375 58.7536 34.375ZM40.5979 72.7656C43.7466 71.5723 45.3463 68.0684 44.1529 64.9199C42.9594 61.7715 39.4553 60.1719 36.3066 61.3652C20.9442 67.1543 10 81.9824 10 99.375C10 121.82 28.181 140 50.628 140C66.1682 140 79.6516 131.291 86.4822 118.494C88.0565 115.523 86.9392 111.842 83.9683 110.242C80.9974 108.643 77.3155 109.785 75.7158 112.756C70.942 121.719 61.496 127.812 50.628 127.812C34.91 127.812 22.1884 115.092 22.1884 99.375C22.1884 87.2129 29.8315 76.8281 40.5979 72.7656ZM75.9697 54.6875L75.4872 52.2246C74.3446 46.5625 69.393 42.5 63.6035 42.5C55.9604 42.5 50.2217 49.4824 51.7199 56.9727L57.5855 86.2988C59.1091 93.8906 65.7619 99.3496 73.532 99.3496H74.827C74.9286 99.3496 75.0302 99.3496 75.1571 99.3496H99.0515C100.753 99.3496 102.251 100.391 102.86 101.99L112.078 126.594C113.601 130.682 118.121 132.84 122.26 131.443L134.449 127.381C138.715 125.959 141 121.363 139.578 117.098C138.156 112.832 133.56 110.547 129.294 111.969L124.546 113.543L118.07 96.2773C115.1 88.3555 107.507 83.0996 99.0515 83.0996H81.6576L79.2199 70.9121H95.3188C99.8132 70.9121 103.444 67.2812 103.444 62.7871C103.444 58.293 99.8132 54.6621 95.3188 54.6621H75.9697V54.6875Z" fill="currentColor"/>
</svg>
