<svg viewBox="0 0 150 150" fill="none" xmlns="http://www.w3.org/2000/svg">
<g clip-path="url(#clip0_123_42)">
<path d="M112.184 23H135.184V30H112.184V23Z" fill="currentColor"/>
<path d="M150.184 142H0.183594V8H150.184V142ZM4.80445 136.563H145.563V13.437H4.80445V136.563Z" fill="currentColor"/>
<path d="M15.1836 120.511H43.3909V126H15.1836V120.511ZM15.1836 110.167H43.3909V115.656H15.1836V110.167ZM75.2882 48.8216C69.2919 48.8639 63.5085 45.9507 59.3573 40.7998L62.657 37C69.3983 45.2751 80.5393 45.4862 87.4936 37.4644L87.8839 37L91.1836 40.7998C87.0678 45.9507 81.2844 48.8639 75.2882 48.8216Z" fill="currentColor"/>
<path d="M125.825 79.8351L117.659 71.1102C105.589 82.6775 91.549 89.4679 76.8645 90.7707L74.5365 90.9681L74.1783 85.8359L76.5063 85.6385C90.0806 84.4541 103.082 78.1769 114.328 67.5176L96.42 48.3703C95.9544 47.8965 95.2381 47.8965 94.8083 48.3703C83.9202 60.1745 66.4421 60.1745 55.554 48.3703C55.1242 47.8965 54.4079 47.857 53.9423 48.3703L41.4783 61.6747C48.1401 68.4651 55.9122 72.5314 66.8718 75.0186L69.1641 75.5318L68.2328 80.5457L65.9406 80.0324C53.9781 77.3479 45.4897 72.8473 38.1475 65.2673L24.5374 79.8351C24.0718 80.3088 24.0718 81.1379 24.5016 81.6116C52.1157 112.484 97.1721 112.84 125.18 82.4012L125.897 81.6116C126.29 81.1379 126.29 80.3088 125.825 79.8351Z" fill="currentColor"/>
</g>
<defs>
<clipPath id="clip0_123_42">
<rect width="150" height="150" fill="white"/>
</clipPath>
</defs>
</svg>
